<mxfile host="app.diagrams.net" agent="Mozilla/5.0 (Windows NT 10.0; Win64; x64; rv:137.0) Gecko/20100101 Firefox/137.0" version="26.2.12">
  <diagram id="C5RBs43oDa-KdzZeNtuy" name="Page-1">
    <mxGraphModel dx="2895" dy="1159" grid="1" gridSize="10" guides="1" tooltips="1" connect="1" arrows="1" fold="1" page="1" pageScale="1" pageWidth="827" pageHeight="1169" math="0" shadow="0">
      <root>
        <mxCell id="WIyWlLk6GJQsqaUBKTNV-0" />
        <mxCell id="WIyWlLk6GJQsqaUBKTNV-1" parent="WIyWlLk6GJQsqaUBKTNV-0" />
        <mxCell id="G0B9y1jVvnpXi2dd95Ep-16" value="User" style="rounded=1;whiteSpace=wrap;html=1;" parent="WIyWlLk6GJQsqaUBKTNV-1" vertex="1">
          <mxGeometry x="-760" y="240" width="120" height="60" as="geometry" />
        </mxCell>
        <mxCell id="G0B9y1jVvnpXi2dd95Ep-17" value="" style="endArrow=classic;html=1;rounded=0;entryX=0;entryY=0.5;entryDx=0;entryDy=0;exitX=1;exitY=0.5;exitDx=0;exitDy=0;" parent="WIyWlLk6GJQsqaUBKTNV-1" source="G0B9y1jVvnpXi2dd95Ep-16" target="G0B9y1jVvnpXi2dd95Ep-18" edge="1">
          <mxGeometry width="50" height="50" relative="1" as="geometry">
            <mxPoint x="-470" y="280" as="sourcePoint" />
            <mxPoint x="-400" y="280" as="targetPoint" />
          </mxGeometry>
        </mxCell>
        <mxCell id="G0B9y1jVvnpXi2dd95Ep-18" value="Download App on Android Devices" style="whiteSpace=wrap;html=1;aspect=fixed;" parent="WIyWlLk6GJQsqaUBKTNV-1" vertex="1">
          <mxGeometry x="-550" y="215" width="110" height="110" as="geometry" />
        </mxCell>
        <mxCell id="G0B9y1jVvnpXi2dd95Ep-20" value="" style="endArrow=classic;html=1;rounded=0;entryX=0;entryY=0.5;entryDx=0;entryDy=0;exitX=1;exitY=0.5;exitDx=0;exitDy=0;" parent="WIyWlLk6GJQsqaUBKTNV-1" source="G0B9y1jVvnpXi2dd95Ep-18" edge="1">
          <mxGeometry width="50" height="50" relative="1" as="geometry">
            <mxPoint x="-290" y="280" as="sourcePoint" />
            <mxPoint x="-340" y="272.5" as="targetPoint" />
          </mxGeometry>
        </mxCell>
        <mxCell id="G0B9y1jVvnpXi2dd95Ep-23" value="Database" style="shape=cylinder3;whiteSpace=wrap;html=1;boundedLbl=1;backgroundOutline=1;size=15;" parent="WIyWlLk6GJQsqaUBKTNV-1" vertex="1">
          <mxGeometry x="-290" y="490" width="110" height="110" as="geometry" />
        </mxCell>
        <mxCell id="G0B9y1jVvnpXi2dd95Ep-39" value="View Entry" style="ellipse;whiteSpace=wrap;html=1;aspect=fixed;" parent="WIyWlLk6GJQsqaUBKTNV-1" vertex="1">
          <mxGeometry x="50" y="50" width="125" height="125" as="geometry" />
        </mxCell>
        <mxCell id="G0B9y1jVvnpXi2dd95Ep-40" value="" style="endArrow=classic;html=1;rounded=0;exitX=1;exitY=0;exitDx=0;exitDy=0;entryX=0;entryY=0.5;entryDx=0;entryDy=0;" parent="WIyWlLk6GJQsqaUBKTNV-1" source="G0B9y1jVvnpXi2dd95Ep-41" target="G0B9y1jVvnpXi2dd95Ep-39" edge="1">
          <mxGeometry width="50" height="50" relative="1" as="geometry">
            <mxPoint x="-1" y="122.5" as="sourcePoint" />
            <mxPoint x="60" y="140" as="targetPoint" />
          </mxGeometry>
        </mxCell>
        <mxCell id="G0B9y1jVvnpXi2dd95Ep-41" value="Which Action would you like to perform?" style="whiteSpace=wrap;html=1;aspect=fixed;" parent="WIyWlLk6GJQsqaUBKTNV-1" vertex="1">
          <mxGeometry x="-140" y="220" width="110" height="110" as="geometry" />
        </mxCell>
        <mxCell id="G0B9y1jVvnpXi2dd95Ep-42" value="" style="endArrow=classic;html=1;rounded=0;exitX=1;exitY=0.5;exitDx=0;exitDy=0;entryX=0;entryY=0.5;entryDx=0;entryDy=0;" parent="WIyWlLk6GJQsqaUBKTNV-1" source="G0B9y1jVvnpXi2dd95Ep-41" target="G0B9y1jVvnpXi2dd95Ep-43" edge="1">
          <mxGeometry width="50" height="50" relative="1" as="geometry">
            <mxPoint x="10" y="460" as="sourcePoint" />
            <mxPoint x="90" y="455" as="targetPoint" />
          </mxGeometry>
        </mxCell>
        <mxCell id="G0B9y1jVvnpXi2dd95Ep-43" value="Create Entry" style="ellipse;whiteSpace=wrap;html=1;aspect=fixed;" parent="WIyWlLk6GJQsqaUBKTNV-1" vertex="1">
          <mxGeometry x="80" y="220" width="125" height="125" as="geometry" />
        </mxCell>
        <mxCell id="1ylL3Dy_7SsJsjk1j2NS-3" style="edgeStyle=orthogonalEdgeStyle;rounded=0;orthogonalLoop=1;jettySize=auto;html=1;exitX=1;exitY=0.5;exitDx=0;exitDy=0;" parent="WIyWlLk6GJQsqaUBKTNV-1" source="1ylL3Dy_7SsJsjk1j2NS-0" target="G0B9y1jVvnpXi2dd95Ep-41" edge="1">
          <mxGeometry relative="1" as="geometry" />
        </mxCell>
        <mxCell id="1ylL3Dy_7SsJsjk1j2NS-0" value="Which Movie would you like to perform an action on?" style="whiteSpace=wrap;html=1;aspect=fixed;" parent="WIyWlLk6GJQsqaUBKTNV-1" vertex="1">
          <mxGeometry x="-340" y="220" width="110" height="110" as="geometry" />
        </mxCell>
        <mxCell id="1ylL3Dy_7SsJsjk1j2NS-4" value="Edit Entry" style="ellipse;whiteSpace=wrap;html=1;aspect=fixed;" parent="WIyWlLk6GJQsqaUBKTNV-1" vertex="1">
          <mxGeometry x="80" y="410" width="125" height="125" as="geometry" />
        </mxCell>
        <mxCell id="1ylL3Dy_7SsJsjk1j2NS-5" value="Delete Entry" style="ellipse;whiteSpace=wrap;html=1;aspect=fixed;" parent="WIyWlLk6GJQsqaUBKTNV-1" vertex="1">
          <mxGeometry x="80" y="580" width="125" height="125" as="geometry" />
        </mxCell>
        <mxCell id="1ylL3Dy_7SsJsjk1j2NS-13" value="" style="endArrow=classic;html=1;rounded=0;exitX=1;exitY=1;exitDx=0;exitDy=0;entryX=0;entryY=0;entryDx=0;entryDy=0;" parent="WIyWlLk6GJQsqaUBKTNV-1" source="G0B9y1jVvnpXi2dd95Ep-41" target="1ylL3Dy_7SsJsjk1j2NS-4" edge="1">
          <mxGeometry width="50" height="50" relative="1" as="geometry">
            <mxPoint x="-500" y="640" as="sourcePoint" />
            <mxPoint x="-450" y="590" as="targetPoint" />
          </mxGeometry>
        </mxCell>
        <mxCell id="1ylL3Dy_7SsJsjk1j2NS-14" value="" style="endArrow=classic;html=1;rounded=0;entryX=0;entryY=0;entryDx=0;entryDy=0;exitX=0.75;exitY=1;exitDx=0;exitDy=0;" parent="WIyWlLk6GJQsqaUBKTNV-1" source="G0B9y1jVvnpXi2dd95Ep-41" target="1ylL3Dy_7SsJsjk1j2NS-5" edge="1">
          <mxGeometry width="50" height="50" relative="1" as="geometry">
            <mxPoint x="-500" y="640" as="sourcePoint" />
            <mxPoint x="-450" y="590" as="targetPoint" />
          </mxGeometry>
        </mxCell>
        <mxCell id="1ylL3Dy_7SsJsjk1j2NS-15" value="" style="endArrow=classic;html=1;rounded=0;entryX=1;entryY=0;entryDx=0;entryDy=15;entryPerimeter=0;exitX=0;exitY=1;exitDx=0;exitDy=0;" parent="WIyWlLk6GJQsqaUBKTNV-1" source="G0B9y1jVvnpXi2dd95Ep-43" target="G0B9y1jVvnpXi2dd95Ep-23" edge="1">
          <mxGeometry width="50" height="50" relative="1" as="geometry">
            <mxPoint x="-500" y="640" as="sourcePoint" />
            <mxPoint x="-450" y="590" as="targetPoint" />
          </mxGeometry>
        </mxCell>
        <mxCell id="1ylL3Dy_7SsJsjk1j2NS-16" value="&lt;div&gt;Entry gets added&amp;nbsp;&lt;/div&gt;&lt;div&gt;to Database&lt;/div&gt;" style="edgeLabel;html=1;align=center;verticalAlign=middle;resizable=0;points=[];" parent="1ylL3Dy_7SsJsjk1j2NS-15" vertex="1" connectable="0">
          <mxGeometry x="0.1525" y="-2" relative="1" as="geometry">
            <mxPoint as="offset" />
          </mxGeometry>
        </mxCell>
        <mxCell id="1ylL3Dy_7SsJsjk1j2NS-17" value="" style="endArrow=classic;html=1;rounded=0;exitX=0;exitY=0.5;exitDx=0;exitDy=0;entryX=1;entryY=0;entryDx=0;entryDy=35;entryPerimeter=0;" parent="WIyWlLk6GJQsqaUBKTNV-1" source="1ylL3Dy_7SsJsjk1j2NS-4" target="G0B9y1jVvnpXi2dd95Ep-23" edge="1">
          <mxGeometry width="50" height="50" relative="1" as="geometry">
            <mxPoint x="-500" y="640" as="sourcePoint" />
            <mxPoint x="-450" y="590" as="targetPoint" />
          </mxGeometry>
        </mxCell>
        <mxCell id="1ylL3Dy_7SsJsjk1j2NS-19" value="&lt;div&gt;Entry gets updated&lt;/div&gt;&lt;div&gt;in Database&lt;br&gt;&lt;/div&gt;" style="edgeLabel;html=1;align=center;verticalAlign=middle;resizable=0;points=[];" parent="1ylL3Dy_7SsJsjk1j2NS-17" vertex="1" connectable="0">
          <mxGeometry x="0.1054" y="4" relative="1" as="geometry">
            <mxPoint y="-1" as="offset" />
          </mxGeometry>
        </mxCell>
        <mxCell id="1ylL3Dy_7SsJsjk1j2NS-18" value="" style="endArrow=classic;html=1;rounded=0;exitX=0;exitY=0.4;exitDx=0;exitDy=0;exitPerimeter=0;entryX=1;entryY=0;entryDx=0;entryDy=75;entryPerimeter=0;" parent="WIyWlLk6GJQsqaUBKTNV-1" source="1ylL3Dy_7SsJsjk1j2NS-5" target="G0B9y1jVvnpXi2dd95Ep-23" edge="1">
          <mxGeometry width="50" height="50" relative="1" as="geometry">
            <mxPoint x="-500" y="640" as="sourcePoint" />
            <mxPoint x="-450" y="590" as="targetPoint" />
          </mxGeometry>
        </mxCell>
        <mxCell id="1ylL3Dy_7SsJsjk1j2NS-20" value="&lt;div&gt;Entry gets removed&lt;/div&gt;&lt;div&gt;from Database&lt;br&gt;&lt;/div&gt;" style="edgeLabel;html=1;align=center;verticalAlign=middle;resizable=0;points=[];" parent="1ylL3Dy_7SsJsjk1j2NS-18" vertex="1" connectable="0">
          <mxGeometry x="-0.0986" y="3" relative="1" as="geometry">
            <mxPoint as="offset" />
          </mxGeometry>
        </mxCell>
      </root>
    </mxGraphModel>
  </diagram>
</mxfile>
